# xmcd CD database file
#
# Track frame offsets:
#	150
#	10964
#	25220
#	36555
#	52307
#	71363
#	84041
#	94538
#	106928
#	118338
#	129522
#	151577
#
# Disc length: 2117 seconds
#
# Revision: 0
# Processed by: cddbd v1.5.1PL2 Copyright (c) Steve Scherf et al.
# Submitted via: CDex 1.51
#
DISCID=9308430c
DTITLE=Brandon Sturiale - Midnight Story
DYEAR=1999
DGENRE=Blues
TTITLE0=Morning Sun
TTITLE1=Past Present Future
TTITLE2=Snow Queen
TTITLE3=Just A Simple Song
TTITLE4=Home
TTITLE5=Truth Revealed
TTITLE6=Season After Season
TTITLE7=Lost
TTITLE8=Reflections
TTITLE9=Midnight Story
TTITLE10=Lead The Way
TTITLE11=Emily's Lullaby
EXTD=YEAR: 1999
EXTT0=
EXTT1=
EXTT2=
EXTT3=
EXTT4=
EXTT5=
EXTT6=
EXTT7=
EXTT8=
EXTT9=
EXTT10=
EXTT11=
PLAYORDER=
